<svg xmlns="http://www.w3.org/2000/svg" version="1.1" xmlns:xlink="http://www.w3.org/1999/xlink" xmlns:svgjs="http://svgjs.dev/svgjs" width="1000" height="984" viewBox="0 0 1000 984"><g transform="matrix(1,0,0,1,-0.2331903483818678,0.39838056680162026)"><svg viewBox="0 0 251 247" data-background-color="#ffffff" preserveAspectRatio="xMidYMid meet" height="984" width="1000" xmlns="http://www.w3.org/2000/svg" xmlns:xlink="http://www.w3.org/1999/xlink"><g id="tight-bounds" transform="matrix(1,0,0,1,0.05853077744384905,-0.09999999999999432)"><svg viewBox="0 0 250.8829324728087 247.2" height="247.2" width="250.8829324728087"><g><svg viewBox="0 0 395.52 389.71381208084694" height="247.2" width="250.8829324728087"><g transform="matrix(1,0,0,1,0,298.35211814436957)"><svg viewBox="0 0 395.52 91.36169393647738" height="91.36169393647738" width="395.52"><g id="textblocktransform"><svg viewBox="0 0 395.52 91.36169393647738" height="91.36169393647738" width="395.52" id="textblock"><g><svg viewBox="0 0 395.52 91.36169393647738" height="91.36169393647738" width="395.52"><g transform="matrix(1,0,0,1,0,0)"><svg width="395.52" viewBox="3.299999952316284 -35.5 155.83999633789062 36" height="91.36169393647738" data-palette-color="#1f1a4a"><path d="M21.35-1.15Q16.9 0.5 13.05 0.5L13.05 0.5Q8.7 0.5 6-1.8 3.3-4.1 3.3-9.15L3.3-9.15 3.3-25.2Q3.3-29 4.38-30.95 5.45-32.9 7.65-34.25L7.65-34.25Q9.85-35.5 13.05-35.5L13.05-35.5Q16.95-35.5 20.1-33.85L20.1-33.85 19.05-31Q16.35-32 13.8-32L13.8-32Q11.05-32 8.97-30.6 6.9-29.2 6.9-25.65L6.9-25.65 6.9-9.25Q6.9-6.1 8.65-4.55 10.4-3 13.6-3L13.6-3Q16.7-3 20.65-4.35L20.65-4.35 21.35-1.15ZM42.3 0L38.85-11.3 28.45-11.3 25.15 0 21.25 0 31.55-35 35.7-35 46.35 0 42.3 0ZM33.6-29.2L29.4-15 37.95-15 33.6-29.2ZM68.8 0L64.84-11.6Q63.95-11.5 63.25-11.5L63.25-11.5 54.35-11.5 54.35 0 50.75 0 50.75-35 62.9-35Q67.7-35 70.07-31.95 72.45-28.9 72.45-23.95L72.45-23.95Q72.45-20.2 71.67-17.32 70.9-14.45 68.2-12.75L68.2-12.75 72.5 0 68.8 0ZM62.8-15Q65.5-15 66.8-16.43 68.09-17.85 68.42-19.68 68.75-21.5 68.75-23.8L68.75-23.8Q68.75-31.5 62.35-31.5L62.35-31.5 54.35-31.5 54.35-15 62.8-15ZM86.89 0L77.24-35 81.19-35 89.19-5.65 97.14-35 101.14-35 91.54 0 86.89 0ZM109.39 0L109.39-31.6 106.09-31.7 106.09-35 112.99-35 112.99 0 109.39 0ZM138.19-1.15Q133.74 0.5 129.89 0.5L129.89 0.5Q125.54 0.5 122.84-1.8 120.14-4.1 120.14-9.15L120.14-9.15 120.14-25.2Q120.14-29 121.21-30.95 122.29-32.9 124.49-34.25L124.49-34.25Q126.69-35.5 129.89-35.5L129.89-35.5Q133.79-35.5 136.94-33.85L136.94-33.85 135.89-31Q133.19-32 130.64-32L130.64-32Q127.89-32 125.81-30.6 123.74-29.2 123.74-25.65L123.74-25.65 123.74-9.25Q123.74-6.1 125.49-4.55 127.24-3 130.44-3L130.44-3Q133.54-3 137.49-4.35L137.49-4.35 138.19-1.15ZM142.44 0L142.44-35 159.14-35 159.14-31.55 146.04-31.55 146.04-20.65 154.79-20.65 153.64-17.15 146.04-17.15 146.04-3.25 159.04-3.25 159.04 0 142.44 0Z" opacity="1" transform="matrix(1,0,0,1,0,0)" fill="#1f1a4a" class="wordmark-text-0" data-fill-palette-color="primary" id="text-0"></path></svg></g></svg></g></svg></g></svg></g><g transform="matrix(1,0,0,1,75.54432,0)"><svg viewBox="0 0 244.43135999999998 244.43135999999998" height="244.43135999999998" width="244.43135999999998"><g><svg viewBox="0 0 244.43135999999998 244.43135999999998" height="244.43135999999998" width="244.43135999999998"><g transform="matrix(1,0,0,1,64.60265593644992,101.8692651317007)"><svg viewBox="0 0 115.22604812710014 40.69282973659859" height="40.69282973659859" width="115.22604812710014"><g><svg version="1.0" xmlns="http://www.w3.org/2000/svg" xmlns:xlink="http://www.w3.org/1999/xlink" x="0" y="0" viewBox="0 0 100.00099182128906 35.316001892089844" enable-background="new 0 0 100 35.316" xml:space="preserve" width="115.22604812710014" height="40.69282973659859" class="icon-s-0" data-fill-palette-color="accent" id="s-0"><circle cx="14.168" cy="28.868" r="6.4" fill="#ca3433" data-fill-palette-color="accent"></circle><circle cx="79.074" cy="28.868" r="6.4" fill="#ca3433" data-fill-palette-color="accent"></circle><path d="M98.567 0H39.82c-0.734 0-1.754 0.42-2.276 0.936L26.965 11.414c-0.463 0.458-1.398 0.931-2.042 1.031L1.392 16.119C0.625 16.239 0 16.968 0 17.745v9.69c0 0.79 0.643 1.434 1.434 1.434h4.43c0-4.587 3.718-8.305 8.305-8.305s8.304 3.718 8.304 8.305H70.77c0-4.587 3.719-8.305 8.305-8.305 4.587 0 8.305 3.718 8.305 8.305h11.188c0.79 0 1.433-0.644 1.433-1.434V1.433C100 0.643 99.357 0 98.567 0zM55.631 11.847c0 0.79-0.644 1.433-1.434 1.433H31.283c-0.553 0-0.731-0.231-0.788-0.369-0.057-0.138-0.093-0.427 0.3-0.817l8.137-8.075c0.521-0.517 1.541-0.938 2.274-0.938h12.991c0.79 0 1.434 0.643 1.434 1.433V11.847z" fill="#ca3433" data-fill-palette-color="accent"></path></svg></g></svg></g><g><path d="M29.896 85.144c0.09 2.378-0.167 4.485-0.772 6.32v0c-0.684 2.074-1.786 3.574-3.307 4.499-1.521 0.925-3.483 0.991-5.885 0.199v0l-11.472-3.781c-1.81-0.596-3.093-1.306-3.849-2.128-0.765-0.818-1.296-1.857-1.595-3.115v0c-0.248-1.242-0.12-2.626 0.383-4.152v0c0.613-1.86 1.561-3.41 2.843-4.651v0l1.784 1.426c-0.903 1.128-1.554 2.298-1.953 3.509v0c-0.432 1.311-0.477 2.572-0.135 3.782 0.342 1.21 1.358 2.094 3.048 2.651v0l11.718 3.862c1.501 0.495 2.758 0.444 3.772-0.152 1.012-0.589 1.769-1.647 2.272-3.172v0c0.486-1.475 0.717-3.259 0.694-5.35v0z" fill="#ca3433" data-fill-palette-color="accent"></path><path d="M53.053 53.953l-8.061-3.757-5.228 5.811 4.656 7.539-1.958 2.176-14.39-23.37 2.085-2.317 24.934 11.653zM32.347 44.122l5.824 9.501 4.303-4.782z" fill="#ca3433" data-fill-palette-color="accent"></path><path d="M89.19 31.508l-6.26-6.761c-0.393 0.226-0.751 0.411-1.072 0.554v0l-6.113 2.722 3.52 7.905-2.474 1.102-10.711-24.052 8.35-3.719c2.195-0.978 4.149-1.012 5.863-0.103 1.709 0.917 3.068 2.507 4.075 4.769v0c0.767 1.722 1.268 3.32 1.502 4.793 0.228 1.475-0.102 2.88-0.991 4.212v0l6.858 7.444zM80.479 23.037c1.237-0.551 2.007-1.286 2.31-2.206 0.309-0.922 0.349-1.834 0.122-2.736-0.218-0.898-0.563-1.875-1.033-2.93v0c-1.572-3.53-3.825-4.641-6.76-3.334v0l-5.495 2.447 5.052 11.343z" fill="#ca3433" data-fill-palette-color="accent"></path><path d="M124.99 26.472l-6.721-26.472 2.967 0.06 5.573 22.196 6.424-21.951 3.007 0.061-7.755 26.177z" fill="#ca3433" data-fill-palette-color="accent"></path><path d="M163.755 35.397l9.575-21.756-2.237-1.072 0.998-2.269 4.749 2.09-10.606 24.098z" fill="#ca3433" data-fill-palette-color="accent"></path><path d="M199.657 62.15c-2.151-1.018-3.901-2.218-5.25-3.601v0c-1.525-1.564-2.347-3.234-2.465-5.01-0.118-1.776 0.728-3.547 2.538-5.313v0l8.648-8.433c1.364-1.33 2.586-2.141 3.664-2.432 1.079-0.301 2.245-0.293 3.5 0.023v0c1.216 0.353 2.385 1.105 3.507 2.255v0c1.367 1.402 2.305 2.958 2.814 4.669v0l-2.089 0.924c-0.584-1.322-1.321-2.439-2.211-3.351v0c-0.964-0.989-2.062-1.61-3.294-1.866-1.231-0.255-2.484 0.239-3.757 1.481v0l-8.834 8.614c-1.131 1.103-1.667 2.242-1.606 3.416 0.056 1.17 0.644 2.33 1.766 3.48v0c1.085 1.112 2.56 2.14 4.426 3.084v0z" fill="#ca3433" data-fill-palette-color="accent"></path><path d="M212.431 85.458l24.459-9.746 4.648 11.665-2.405 0.958-3.646-9.149-7.622 3.038 2.436 6.114-2.763 0.169-2.116-5.31-9.713 3.871 3.62 9.084-2.275 0.906z" fill="#ca3433" data-fill-palette-color="accent"></path><path d="M13.611 172.41c-1.505-1.887-2.564-3.76-3.179-5.62v0c-0.694-2.099-0.702-3.984-0.023-5.656 0.678-1.671 2.237-2.91 4.676-3.716v0l11.63-3.844c1.834-0.606 3.31-0.807 4.425-0.603 1.112 0.213 2.171 0.74 3.177 1.582v0c0.951 0.867 1.682 2.073 2.192 3.618v0c0.623 1.885 0.788 3.718 0.496 5.499v0l-2.32-0.072c0.054-1.465-0.123-2.816-0.532-4.051v0c-0.438-1.324-1.159-2.375-2.165-3.154-1.006-0.779-2.366-0.886-4.08-0.319v0l-11.885 3.928c-1.525 0.504-2.52 1.302-2.985 2.392-0.471 1.093-0.451 2.411 0.059 3.956v0c0.496 1.5 1.383 3.095 2.662 4.783v0z" fill="#ca3433" data-fill-palette-color="accent"></path><path d="M39.07 210.798l4.64-7.733-5.312-5.897-8.093 3.901-1.993-2.212 25.107-12.032 2.12 2.352-14.403 23.914zM51.181 190.946l-10.203 4.876 4.366 4.846z" fill="#ca3433" data-fill-palette-color="accent"></path><path d="M81.615 237.822l0.842-9.315c-0.44-0.138-0.821-0.278-1.142-0.421v0l-6.205-2.761-3.566 8.015-2.511-1.117 10.857-24.401 8.471 3.769c2.232 0.993 3.584 2.445 4.056 4.356 0.475 1.904 0.2 4.009-0.826 6.314v0c-0.775 1.741-1.641 3.197-2.598 4.369-0.954 1.181-2.235 1.887-3.841 2.117v0l-0.953 10.224zM82.082 225.506c1.256 0.559 2.335 0.639 3.238 0.242 0.895-0.394 1.607-0.982 2.136-1.763 0.529-0.782 1.032-1.706 1.507-2.774v0c1.592-3.579 0.903-6.029-2.07-7.352v0l-5.577-2.481-5.121 11.509z" fill="#ca3433" data-fill-palette-color="accent"></path><path d="M125.424 244.431l-7.911-26.549 3.017-0.062 6.566 22.264 5.6-22.516 3.047-0.063-6.765 26.853z" fill="#ca3433" data-fill-palette-color="accent"></path><path d="M171.394 233.916l-9.705-22.068-2.338 0.941-1.014-2.306 4.822-2.121 10.751 24.448z" fill="#ca3433" data-fill-palette-color="accent"></path><path d="M212.003 201.825c-0.984 2.204-2.161 4.006-3.53 5.407v0c-1.545 1.581-3.216 2.454-5.012 2.62-1.796 0.166-3.613-0.649-5.45-2.444v0l-8.76-8.561c-1.382-1.35-2.238-2.568-2.569-3.654-0.322-1.085-0.34-2.268-0.055-3.548v0c0.333-1.243 1.068-2.446 2.205-3.61v0c1.387-1.42 2.939-2.409 4.656-2.968v0l1.003 2.094c-1.326 0.625-2.444 1.403-3.354 2.334v0c-0.974 0.997-1.577 2.121-1.806 3.372-0.23 1.251 0.301 2.508 1.592 3.77v0l8.952 8.75c1.149 1.123 2.314 1.64 3.496 1.551 1.187-0.084 2.349-0.708 3.486-1.871v0c1.104-1.13 2.113-2.651 3.025-4.562v0z" fill="#ca3433" data-fill-palette-color="accent"></path><path d="M229.958 173.74l-24.793-9.929 4.738-11.833 2.441 0.977-3.717 9.282 7.728 3.095 2.481-6.194 2.151 1.806-2.154 5.38 9.845 3.943 3.687-9.208 2.302 0.922z" fill="#ca3433" data-fill-palette-color="accent"></path><path d="M3.016 125.969c0-5.635 4.568-10.202 10.202-10.202 5.635 0 10.202 4.568 10.203 10.202 0 5.635-4.568 10.202-10.203 10.202-5.635 0-10.202-4.568-10.202-10.202z" fill="#ca3433" data-fill-palette-color="accent"></path><path d="M220.094 125.969c0-5.635 4.568-10.202 10.203-10.202 5.635 0 10.202 4.568 10.202 10.202 0 5.635-4.568 10.202-10.202 10.202-5.635 0-10.202-4.568-10.203-10.202z" fill="#ca3433" data-fill-palette-color="accent"></path></g></svg></g></svg></g><g></g></svg></g><defs></defs></svg><rect width="250.8829324728087" height="247.2" fill="none" stroke="none" visibility="hidden"></rect></g></svg></g></svg>